# xmcd
#
# Track frame offsets:
#       150
#       11566
#       25076
#       42101
#       53397
#       66279
#       79069
#       91846
#       108998
#       121141
#       137775
#       155692
#       167455
#       180737
#
# Disc length: 2585 seconds
#
# Revision: 1
# Processed by: cddbd v1.5PL3 Copyright (c) Steve Scherf et al.
# Submitted via: MusiCat 1.1
#
DISCID=a40a170e
DTITLE=Sheppard Brother's Bluegrass - The Traditional Sound
DYEAR=1900
DGENRE=
TTITLE0=City Life
TTITLE1=When You Go Walking
TTITLE2=Waltz Of The Angels
TTITLE3=The Game I Can't Win
TTITLE4=Banks Of The Ohio
TTITLE5=Ain't It Funny
TTITLE6=I'll Remember You, Love In My Prayers
TTITLE7=Shelly's Winter Love
TTITLE8=Crazy Heart
TTITLE9=Blue Virginia Blues
TTITLE10=Who's That Knocking
TTITLE11=Reuben's Train
TTITLE12=Little Mountain Church
TTITLE13=I Call Her Sunshine
EXTD=\n\n
EXTT0=
EXTT1=
EXTT2=
EXTT3=
EXTT4=
EXTT5=
EXTT6=
EXTT7=
EXTT8=
EXTT9=
EXTT10=
EXTT11=
EXTT12=
EXTT13=
PLAYORDER=
